<svg width="35" height="35" viewBox="0 0 35 35" fill="none" xmlns="http://www.w3.org/2000/svg">
<path d="M17.5003 34.5832C8.0652 34.5832 0.416992 26.935 0.416992 17.4998C0.416992 8.06471 8.0652 0.416504 17.5003 0.416504C26.9355 0.416504 34.5837 8.06471 34.5837 17.4998C34.5734 26.9298 26.9303 34.5729 17.5003 34.5832ZM10.2006 22.261C9.98024 22.261 9.76158 22.2883 9.54633 22.3395L9.29008 22.4096L8.27533 24.147C8.08997 24.4561 8.03045 24.8247 8.10907 25.1765C8.18768 25.5283 8.39842 25.8365 8.69775 26.0373C8.99708 26.2382 9.36213 26.3164 9.71748 26.2558C10.0728 26.1953 10.3913 26.0005 10.6072 25.7118L10.7131 25.5529L12.0627 23.2108C11.844 22.9183 11.5605 22.6803 11.2345 22.5155C10.9085 22.3507 10.5488 22.2636 10.1835 22.261H10.2006ZM19.5691 11.794C19.0376 12.2933 18.6852 12.9537 18.5663 13.6732C18.3759 14.6653 18.5584 15.6927 19.0788 16.5585L24.2722 25.5546C24.4529 25.8587 24.7411 26.084 25.0799 26.1858C25.4187 26.2877 25.7833 26.2587 26.1018 26.1047C26.4193 25.9481 26.6661 25.6774 26.7928 25.3468C26.9195 25.0162 26.9167 24.6499 26.7851 24.3212L26.7014 24.1504L25.3347 21.7741H27.3677C27.7237 21.7711 28.0653 21.6332 28.3236 21.3881C28.5819 21.1431 28.7376 20.8092 28.7592 20.4538C28.7809 20.0984 28.667 19.7481 28.4404 19.4734C28.2138 19.1988 27.8915 19.0204 27.5385 18.9741L27.3677 18.9639H23.7118L19.9637 12.4722L19.5725 11.7889L19.5691 11.794ZM7.69449 18.9519C7.51092 18.9524 7.32923 18.989 7.15985 19.0598C6.99046 19.1306 6.8367 19.2341 6.70736 19.3643C6.57803 19.4946 6.47567 19.6491 6.40615 19.819C6.33663 19.9889 6.3013 20.1709 6.3022 20.3545C6.3022 21.0617 6.82837 21.6596 7.53049 21.7502L7.70133 21.7587H20.4797C20.6211 21.4747 20.6922 21.161 20.6872 20.8438C20.6821 20.5266 20.601 20.2152 20.4506 19.9359C20.3227 19.6742 20.1321 19.4483 19.8958 19.2781C19.6594 19.1079 19.3846 18.9988 19.0959 18.9605L18.8892 18.9502H14.5312L20.5582 8.514C20.7439 8.19049 20.7942 7.80675 20.6983 7.4463C20.6301 7.19334 20.4926 6.96445 20.3014 6.78538C20.1102 6.6063 19.8727 6.48415 19.6158 6.43267C19.359 6.38118 19.0928 6.40241 18.8473 6.49396C18.6019 6.58551 18.3868 6.74375 18.2264 6.95088L18.1205 7.10805L17.5003 8.19113L16.887 7.10805C16.7063 6.80352 16.4177 6.57798 16.0786 6.4761C15.7394 6.37423 15.3743 6.40344 15.0557 6.55796C14.7383 6.71521 14.4918 6.98621 14.3651 7.31702C14.2385 7.64782 14.2411 8.01418 14.3724 8.34317L14.4561 8.514L15.874 11.0082L11.2871 18.9519H7.69449Z" fill="white"/>
</svg>
