<svg width="32" height="31" viewBox="0 0 32 31" fill="none" xmlns="http://www.w3.org/2000/svg">
<path d="M17.2885 15.0775L22.8329 10.1632L4.92476 1.24191C3.73788 0.673526 2.62601 0.593754 1.65101 1.21532L17.2885 15.0775ZM23.7779 20.8311L29.5416 17.9576C30.6666 17.3992 31.2835 16.6081 31.2835 15.7306C31.2835 14.8548 30.6666 14.062 29.5435 13.5036L24.3254 10.906L18.451 16.1112L23.7779 20.8311ZM0.687256 2.42354C0.567256 2.75094 0.499756 3.11657 0.499756 3.51709V27.9558C0.499756 28.589 0.657256 29.1341 0.942256 29.5679L16.1241 16.1096L0.687256 2.42354ZM17.2885 17.1399L2.19101 30.5235C2.47976 30.6215 2.79101 30.6731 3.11913 30.6731C3.70413 30.6731 4.31351 30.5202 4.93413 30.2144L22.2873 21.5773L17.2885 17.1399Z" fill="white"/>
</svg>
